<svg xmlns="http://www.w3.org/2000/svg" xmlns:xlink="http://www.w3.org/1999/xlink" width="24" height="24" version="1.1" viewBox="0 0 24 24"><title>Icon/Hamburger/Outline</title><g id="Icon/Hamburger/Outline" fill="none" fill-rule="evenodd" stroke="none" stroke-width="1"><path id="Shape" fill="#FFF" d="M19.25,16 C19.6642136,16 20,16.3357864 20,16.75 C20,17.1642136 19.6642136,17.5 19.25,17.5 L4.75,17.5 C4.33578644,17.5 4,17.1642136 4,16.75 C4,16.3357864 4.33578644,16 4.75,16 L19.25,16 Z M19.25,11 C19.6642136,11 20,11.3357864 20,11.75 C20,12.1642136 19.6642136,12.5 19.25,12.5 L4.75,12.5 C4.33578644,12.5 4,12.1642136 4,11.75 C4,11.3357864 4.33578644,11 4.75,11 L19.25,11 Z M19.25,6 C19.6642136,6 20,6.33578644 20,6.75 C20,7.16421356 19.6642136,7.5 19.25,7.5 L4.75,7.5 C4.33578644,7.5 4,7.16421356 4,6.75 C4,6.33578644 4.33578644,6 4.75,6 L19.25,6 Z"/></g></svg>