<svg xmlns="http://www.w3.org/2000/svg" xmlns:xlink="http://www.w3.org/1999/xlink" width="306" height="254" version="1.1" viewBox="0 0 306 254"><title>card-illustration</title><defs><linearGradient id="linearGradient-1" x1="100%" x2="8.707%" y1="15.55%" y2="84.45%"><stop offset="0%" stop-color="#383C47"/><stop offset="0%" stop-color="#383C47"/><stop offset="100%" stop-color="#17191F"/></linearGradient></defs><g id="Feed-filters" fill="none" fill-rule="evenodd" stroke="none" stroke-width="1"><g id="Flexible-Height---Center---Small" transform="translate(-57.000000, -266.000000)"><g id="Group-4" transform="translate(0.000000, 166.000000)"><g id="card-illustration" transform="translate(57.000000, 100.000000)"><path id="Combined-Shape" fill="url(#linearGradient-1)" d="M8,0 L85,0 C89.418278,-8.11624501e-16 93,3.581722 93,8 L93,111 C93,115.418278 89.418278,119 85,119 L8,119 C3.581722,119 4.09379668e-15,115.418278 0,111 L0,8 C-5.41083001e-16,3.581722 3.581722,-7.65539184e-17 8,0 Z M8,135 L85,135 C89.418278,135 93,138.581722 93,143 L93,246 C93,250.418278 89.418278,254 85,254 L8,254 C3.581722,254 4.09379668e-15,250.418278 0,246 L0,143 C-5.41083001e-16,138.581722 3.581722,135 8,135 Z M115,135 L192,135 C196.418278,135 200,138.581722 200,143 L200,246 C200,250.418278 196.418278,254 192,254 L115,254 C110.581722,254 107,250.418278 107,246 L107,143 C107,138.581722 110.581722,135 115,135 Z M221,135 L298,135 C302.418278,135 306,138.581722 306,143 L306,246 C306,250.418278 302.418278,254 298,254 L221,254 C216.581722,254 213,250.418278 213,246 L213,143 C213,138.581722 216.581722,135 221,135 Z M115,0 L192,0 C196.418278,-8.11624501e-16 200,3.581722 200,8 L200,111 C200,115.418278 196.418278,119 192,119 L115,119 C110.581722,119 107,115.418278 107,111 L107,8 C107,3.581722 110.581722,-7.65539184e-17 115,0 Z M221,0 L298,0 C302.418278,-8.11624501e-16 306,3.581722 306,8 L306,111 C306,115.418278 302.418278,119 298,119 L221,119 C216.581722,119 213,115.418278 213,111 L213,8 C213,3.581722 216.581722,-7.65539184e-17 221,0 Z"/><rect id="Rectangle" width="75" height="50" x="9" y="58" fill="#5F6571" rx="8"/><rect id="Rectangle" width="75" height="10" x="9" y="11" fill="#5F6571" rx="5"/><rect id="Rectangle" width="55" height="10" x="9" y="26" fill="#5F6571" rx="5"/><g id="Group-12" fill="#5F6571" opacity=".8" transform="translate(116.000000, 11.000000)"><rect id="Rectangle" width="75" height="50" x="0" y="47" rx="8"/><rect id="Rectangle" width="75" height="10" x="0" y="0" rx="5"/><rect id="Rectangle" width="55" height="10" x="0" y="15" rx="5"/></g><g id="Group-11" fill="#5F6571" opacity=".7" transform="translate(222.000000, 11.000000)"><rect id="Rectangle" width="75" height="50" x="0" y="47" rx="8"/><rect id="Rectangle" width="75" height="10" x="0" y="0" rx="5"/><rect id="Rectangle" width="55" height="10" x="0" y="15" rx="5"/></g><g id="Group-10" fill="#5F6571" opacity=".6" transform="translate(222.000000, 146.000000)"><rect id="Rectangle" width="75" height="50" x="0" y="47" rx="8"/><rect id="Rectangle" width="75" height="10" x="0" y="0" rx="5"/><rect id="Rectangle" width="55" height="10" x="0" y="15" rx="5"/></g><g id="Group-8" fill="#5F6571" opacity=".5" transform="translate(116.000000, 146.000000)"><rect id="Rectangle" width="75" height="50" x="0" y="47" rx="8"/><rect id="Rectangle" width="75" height="10" x="0" y="0" rx="5"/><rect id="Rectangle" width="55" height="10" x="0" y="15" rx="5"/></g><g id="Group-7" fill="#5F6571" opacity=".3" transform="translate(9.000000, 146.000000)"><rect id="Rectangle" width="75" height="50" x="0" y="47" rx="8"/><rect id="Rectangle" width="75" height="10" x="0" y="0" rx="5"/><rect id="Rectangle" width="55" height="10" x="0" y="15" rx="5"/></g></g></g></g></g></svg>